<svg xmlns="http://www.w3.org/2000/svg" width="960" height="540" viewBox="0 0 960 540">
  <defs><linearGradient id="countrySky" x2="0" y2="1"><stop stop-color="#7bc8e7"/><stop offset=".57" stop-color="#b8dced"/><stop offset="1" stop-color="#f1e1b5"/></linearGradient></defs>
  <rect width="960" height="540" fill="url(#countrySky)"/>
  <circle cx="790" cy="86" r="48" fill="#ffe7a0" opacity=".9"/><circle cx="790" cy="86" r="65" fill="none" stroke="#fff5c9" stroke-width="4" opacity=".26"/>
  <g fill="#fffaf0" opacity=".78"><path d="M69 119c18-29 57-27 71 1 29-11 59 6 61 35H34c-1-21 14-34 35-36Z"/><path d="M582 73c15-24 48-23 61 1 27-9 52 8 52 34H554c0-20 12-32 28-35Z"/><path d="M875 182c14-21 43-20 53 2 20-7 39 6 40 24H844c1-14 10-23 31-26Z"/></g>
  <path d="M0 382q120-24 240 0t240 0 240 0 240 0v158H0Z" fill="#d8e6c9" opacity=".38"/>
  <path d="M0 426q160-20 320 0t320 0 320 0v114H0Z" fill="#b7d7ba" opacity=".3"/>
</svg>
