<svg xmlns="http://www.w3.org/2000/svg" width="128" height="512" viewBox="0 0 128 512">
  <!-- Rooftop plant: a visibly industrial stack rather than a decorative panel. -->
  <path d="M13 0h102v512H13z" fill="#4d5e62" stroke="#2e3739" stroke-width="8" stroke-linejoin="round"/>
  <path d="M10 0h108v27H10zm0 485h108v27H10z" fill="#314043" stroke="#283235" stroke-width="6"/>
  <path d="M18 10h92M18 502h92" stroke="#d9dfc6" stroke-width="4"/>
  <g stroke="#2f3e40" stroke-width="5" stroke-linejoin="round">
    <path d="M24 44h80v86H24z" fill="#91a6a3"/><path d="M31 57h66M31 76h66M31 95h66M31 114h66"/>
    <path d="M21 173h46v119H21z" fill="#77918e"/><path d="M74 173h33v119H74z" fill="#aab7aa"/>
    <path d="M24 339h80v103H24z" fill="#859b99"/><path d="M35 352h58M35 375h58M35 398h58M35 421h58"/>
  </g>
  <path d="M64 130v42M64 292v47" fill="none" stroke="#c8d2c5" stroke-width="14"/>
  <path d="M64 130v42M64 292v47" fill="none" stroke="#334144" stroke-width="5"/>
  <g fill="#e6ae4f" stroke="#334144" stroke-width="4"><circle cx="44" cy="232" r="11"/><circle cx="87" cy="232" r="11"/></g>
  <path d="M15 485h98" stroke="#f6dc93" stroke-width="3"/>
</svg>
