<svg xmlns="http://www.w3.org/2000/svg" width="520" height="160" viewBox="0 0 520 160">
  <defs>
  <filter id="paper" x="-10%" y="-10%" width="120%" height="120%">
    <feTurbulence baseFrequency=".7" numOctaves="2" seed="7" type="fractalNoise" result="n"/>
    <feColorMatrix in="n" values="1 0 0 0 0 0 1 0 0 0 0 0 1 0 0 0 0 0 .045 0"/>
    <feBlend in="SourceGraphic" mode="multiply"/>
  </filter></defs>
  <g filter="url(#paper)"><path d="M30 111q18-86 62-36q37-67 68 0q36-61 67 2q36-57 72 1q35-49 70 0q38-50 78 5q28-25 45 29" fill="none" stroke="#56372c" stroke-width="38" stroke-linecap="round" stroke-linejoin="round"/><text x="260" y="116" text-anchor="middle" font-family="Arial Black,Arial,sans-serif" font-size="82" font-style="italic" fill="#ffd06a" stroke="#56372c" stroke-width="5" paint-order="stroke">FlappyMike</text><g transform="translate(423 18)" fill="none" stroke="#292626" stroke-width="8"><circle cx="20" cy="20" r="16"/><circle cx="59" cy="20" r="16"/><path d="M36 20h7M4 18-9 13m84 5 13-5"/><path d="M17 45q10-15 20 0q10-15 20 0"/></g></g>
</svg>